/* XPM */
static char *tw_l_15[] = {
/* columns rows colors chars-per-pixel */
"110 110 55 1 ",
"  c #3A3A3C",
". c #3C3C3E",
"X c #3E3E40",
"o c #404042",
"O c #414143",
"+ c #424244",
"@ c #454547",
"# c #464647",
"$ c #464648",
"% c #474749",
"& c #4A4A4C",
"* c #4B4B4D",
"= c #4E4E50",
"- c #515153",
"; c #535354",
": c #535355",
"> c #555557",
", c #565658",
"< c #59595B",
"1 c #5A5A5C",
"2 c #5B5B5D",
"3 c #5C5C5E",
"4 c #5D5D5E",
"5 c #5E5E5F",
"6 c #5E5E60",
"7 c #5F5F61",
"8 c #616162",
"9 c #626264",
"0 c #646466",
"q c #6B6B6D",
"w c #6E6E6F",
"e c #707072",
"r c #717172",
"t c #727273",
"y c #737375",
"u c #787879",
"i c #79797A",
"p c #7B7B7C",
"a c #7E7E7F",
"s c #808081",
"d c #838385",
"f c #848485",
"g c #8D8D8F",
"h c #919192",
"j c #9D9D9E",
"k c #A8A8A9",
"l c #A9A9AA",
"z c #B6B6B6",
"x c #C2C2C3",
"c c #CECECF",
"v c gray86",
"b c #E7E7E7",
"n c #F3F3F4",
"m c white",
"M c None",
/* pixels */
"MMMMMMMMMMMMMMMMMMMMMMMMMMMMMMMMMMMMMMMMMMMMMMMM              MMMMMMMMMMMMMMMMMMMMMMMMMMMMMMMMMMMMMMMMMMMMMMMM",
"MMMMMMMMMMMMMMMMMMMMMMMMMMMMMMMMMMMMMMMMMM                          MMMMMMMMMMMMMMMMMMMMMMMMMMMMMMMMMMMMMMMMMM",
"MMMMMMMMMMMMMMMMMMMMMMMMMMMMMMMMMMMMMMM                                MMMMMMMMMMMMMMMMMMMMMMMMMMMMMMMMMMMMMMM",
"MMMMMMMMMMMMMMMMMMMMMMMMMMMMMMMMMMMM                                      MMMMMMMMMMMMMMMMMMMMMMMMMMMMMMMMMMMM",
"MMMMMMMMMMMMMMMMMMMMMMMMMMMMMMMMM              $qfjjjccccjjjfq$              MMMMMMMMMMMMMMMMMMMMMMMMMMMMMMMMM",
"MMMMMMMMMMMMMMMMMMMMMMMMMMMMMMM           $ulcmmmmmmmmmmmmmmmmmmclu$           MMMMMMMMMMMMMMMMMMMMMMMMMMMMMMM",
"MMMMMMMMMMMMMMMMMMMMMMMMMMMMM          7lvmmmmczjfqq7    7qqfjzcmmmmvl7          MMMMMMMMMMMMMMMMMMMMMMMMMMMMM",
"MMMMMMMMMMMMMMMMMMMMMMMMMMM         ;lbmmnxh7                    7hxnmmbl;         MMMMMMMMMMMMMMMMMMMMMMMMMMM",
"MMMMMMMMMMMMMMMMMMMMMMMMMM        ucmmbl7                            7lbmmcu        MMMMMMMMMMMMMMMMMMMMMMMMMM",
"MMMMMMMMMMMMMMMMMMMMMMMM        fbmmzq                                  uzmmbf        MMMMMMMMMMMMMMMMMMMMMMMM",
"MMMMMMMMMMMMMMMMMMMMMMM       ubmnj;                                      ;jnmbu       MMMMMMMMMMMMMMMMMMMMMMM",
"MMMMMMMMMMMMMMMMMMMMM       7cmnj$                                          $jnmc;       MMMMMMMMMMMMMMMMMMMMM",
"MMMMMMMMMMMMMMMMMMMM       jmmz$                                              $zmmj       MMMMMMMMMMMMMMMMMMMM",
"MMMMMMMMMMMMMMMMMMM      7vmv7                                                  7vmv7      MMMMMMMMMMMMMMMMMMM",
"MMMMMMMMMMMMMMMMMM      fmmj                                                      jmnf      MMMMMMMMMMMMMMMMMM",
"MMMMMMMMMMMMMMMMM     $zmb7                                                        7bmz      MMMMMMMMMMMMMMMMM",
"MMMMMMMMMMMMMMMM     $vmx$                                                          $xmv$     MMMMMMMMMMMMMMMM",
"MMMMMMMMMMMMMMM     7vmj                                                              jmv7     MMMMMMMMMMMMMMM",
"MMMMMMMMMMMMMM     7nmf                                                                fmn7     MMMMMMMMMMMMMM",
"MMMMMMMMMMMMM     7nnf                                                                  fmn7     MMMMMMMMMMMMM",
"MMMMMMMMMMMM     7nn7                                                                    fmn7     MMMMMMMMMMMM",
"MMMMMMMMMMM     $vmf                            7jzcnmmmmbczh7                            fmv$     MMMMMMMMMMM",
"MMMMMMMMMMM    $vmf                          7znmmmmmmmmmmmmmmnz7                          fmv     MMMMMMMMMMM",
"MMMMMMMMMM.    zmj                         7cmmmmmmmmmmmmmmmmmmmmcq                         jmz     MMMMMMMMMM",
"MMMMMMMMM.    hmx                         jmmmmmmmmmmmmmmmmmmmmmmmml$                        xmf     MMMMMMMMM",
"MMMMMMMMM    7mb$                       $cmmmmmmmmmmmmmmmmmmmmmmmmmmv;                       $bn7    MMMMMMMMM",
"MMMMMMMMX    vm7                       $vmmmmmmmmmmmmmmmmmmmmmmmmmmmmn7                       7mv     MMMMMMMM",
"MMMMMMMo    jmj                       $vmmmmmmmmmmmmmmmmmmmmmmmmmmmmmmn$                       jmj     MMMMMMM",
"MMMMMMM    7mv                        zmmmmmmmmmmmmmmmmmmmmmmmmmmmmmmmmv                        vm;    MMMMMMM",
"MMMMMM#    cm7                       ummmmmmmmmmmmmmmmmmmmmmmmmmmmmmmmmmj                       7mc     MMMMMM",
"MMMMMM    umz                       $bmmmmmmmmmmmmmmmmmmmmmmmmmmmmmmmmmmm;                       zmu    MMMMMM",
"MMMMM&    bn$                       jmmmmmmmmmmmmmmmmmmmmmmmmmmmmmmmmmmmmz                       $nb     MMMMM",
"MMMMM    fmj                        bmmmmmmmmmmmmmmmmmmmmmmmmmmmmmmmmmmmmm;                       jmf    MMMMM",
"MMMM>    bn$                       ummmmmmmmmmmmmmmmmmmmmmmmmmmmmmmmmmmmmml                       $nb     MMMM",
"MMMM    umj                        xmmmmmmmmmmmmmmmmmmmmmmmmmmmmmmmmmmmmmmb                        jmu    MMMM",
"MMM4    cm;                        mmmmmmmmmmmmmmmmmmmmmmmmmmmmmmmmmmmmmmmm7                       ;mc    MMMM",
"MMM-   ;mz                        qmmmmmmmmmmmmmmmmmmmmmmmmmmmmmmmmmmmmmmmmh                        zm;    MMM",
"MMM    lmq                        jmmmmmmmmmmmmmmmmmmmmmmmmmmmmmmmmmmmmmmmmx                        uml    MMM",
"MMt    bb                         xmmmmmmmmmmmmmmmmmmmmmmmmmmmmmmmmmmmmmmmmv                         bb    MMM",
"MM;   7ml                         cmmmmmmmmmmmmmmmmmmmmmmmmmmmmmmmmmmmmmmmmm                         lm7    MM",
"MM    lm7                         mmmmmmmmmmmmmmmmmmmmmmmmmmmmmmmmmmmmmmmmmm                         qml    MM",
"MM    vn                          mmmmmmmmmmmmmmmmmmmmmmmmmmmmmmmmmmmmmmmmmm                          nv    MM",
"Mt   ;mx                          mmmmmmmmmmmmmmmmmmmmmmmmmmmmmmmmmmmmmmmmmm                          xm$    M",
"M8   umh                          mmmmmmmmmmmmmmmmmmmmmmmmmmmmmmmmmmmmmmmmmm                          hmu    M",
"M    lm7                          mmmmmmmmmmmmmmmmmmmmmmmmmmmmmmmmmmmmmmmmmm                          7ml    M",
"M    cm                           cmmmmmmmmmmmmmmmmmmmmmmmmmmmmmmmmmmmmmmmmc                           mc    M",
"g    mc                           hmmmmmmmmmmmmmmmmmmmmmmmmmmmmmmmmmmmmmmmmh                           cn    M",
"p   ;mz                           $nmmvhlcnmmmmmmmmmmmmmmmmmmmmmmmmnclhvmmn$                           zm$   M",
"u   qmj                            zmmc    $qhlcnmmmmmmmmmmmmnclhq$    cmmz                            jmq    ",
"8   fmf                            ummm          $qhjccccjfq$          mmmu                            fmu    ",
"0   jmq                            $mmm;                              ;mmm;                            qmj    ",
"4   jmq                             nmmu                              ummm                             qmj    ",
"    lm7                             cmmnu                            unmmv                             qmj    ",
"    cm                              cmmmml                         $lmmmmc                              mc    ",
"    cm                              cmmmmmv;                      7vmmmmmc                              mc    ",
"    cm                              cmmmmmmnu                    fnmmmmmmc                              mc    ",
"    cm                              cmmmmmmmml                 $xmmmmmmmmc                              mc    ",
"    lm7                             cmmmmmmmmmv;              7bmmmmmmmmmb                             qmj    ",
"1   jmq                             bmmmmmmmmmmnu            hmmmmmmmmmmmm                             qmj    ",
"9   jmq                             mmmmmmmmmmmmml$        $cmmmmmmmmmmmmm                             qmj    ",
"4   fmf                            ;mmmmmmmmmmmmmmq        jmmmmmmmmmmmmmmq                            fmu    ",
"y   qmj                            qmmmmmmmmmmmmmmq        jmmmmmmmmmmmmmmf                            jmq    ",
"t   ;mz                            jmmmmmmmmmmmmmmq        jmmmmmmmmmmmmmmj                            zm$   M",
"M    mc                            zmmmmmmmmmmmmmmq        jmmmmmmmmmmmmmmc                            cn    M",
"M    cm                            vmmmmmmmmmmmmmmq        jmmmmmmmmmmmmmmn                            mc    M",
"M    lm7                          $mmmmmmmmmmmmmmmq        jmmmmmmmmmmmmmmm;                          7ml    M",
"M<   umh                          ummmmmmmmmmmmmmmq        jmmmmmmmmmmmmmmmf                          hmu    M",
"M9   ;mx                          lmmmmmmmmmmmmmmmq        jmmmmmmmmmmmmmmmz                          xm$    M",
"MM    vn                          vmmmmmmmmmmmmmmmq        jmmmmmmmmmmmmmmmb                          nv    MM",
"MM    lm7                        ;mmmmmmmmmmmmmmmmq        jmmmmmmmmmmmmmmmm7                        qml    MM",
"MM&   7ml                        fmmmmmmmmmmmmmmmmq        jmmmmmmmmmmmmmmmmh                        lm7    MM",
"MMM    bb                        xmmmmmmmmmmmmmmmmq        jmmmmmmmmmmmmmmmmc                        bb    MMM",
"MMM    lmq                      $mmmmmmmmmmmmmmmmmq        jmmmmmmmmmmmmmmmmm$                      uml    MMM",
"MMM%   >mz                      fmmmmmmmmmmmmmmmmmq        jmmmmmmmmmmmmmmmmmf                      zm;    MMM",
"MMMM    cm-                     xmmmmmmmmmmmmmmmmmq        jmmmmmmmmmmmmmmmmmx                     ;mc    MMMM",
"MMMM    umj                     nmmmmmmmmmmmmmmmmmq        jmmmmmmmmmmmmmmmmmn                     jmu    MMMM",
"MMMM.    bn#                    7nmmmmmmmmmmmmmmmmq        jmmmmmmmmmmmmmmmmn7                    $nb     MMMM",
"MMMMM    fmj                     7nmmmmmmmmmmmmmmmq        jmmmmmmmmmmmmmmmn7                     jmf    MMMMM",
"MMMMM.    bn$                     7nmmmmmmmmmmmmmmq        jmmmmmmmmmmmmmmn7                     $nb     MMMMM",
"MMMMMM    umz                      7nmmmmmmmmmmmmmq        jmmmmmmmmmmmmmn7                      zmu    MMMMMM",
"MMMMMM     cm7                      ;vmmmmmmmmmmmmq        jmmmmmmmmmmmmv$                      7mc     MMMMMM",
"MMMMMMM    7mv                       $cmmmmmmmmmmmq        jmmmmmmmmmmmx$                       vm;    MMMMMMM",
"MMMMMMM     jmj                        lmmmmmmmmmmq        jmmmmmmmmmmj                        jmj     MMMMMMM",
"MMMMMMMM     vm7                        unmmmmmmmmq        jmmmmmmmmnu                        7mv     MMMMMMMM",
"MMMMMMMMM    7mb$                        ;vmmmmmmmq        jmmmmmmmc$                        $bn8    MMMMMMMMM",
"MMMMMMMMM     hmx                          jmmmmmmq        jmmmmmnh                          xmf     MMMMMMMMM",
"MMMMMMMMMM     zmj                          ;cmmmmq        jmmmmx;                          jmz     MMMMMMMMMM",
"MMMMMMMMMMM    $vmf                           qbmmq        jmmcq                           fmv     MMMMMMMMMMM",
"MMMMMMMMMMM     $vmf                            qxq        hzq                            fmv#     MMMMMMMMMMM",
"MMMMMMMMMMMM     7nn7                                                                    fmn7     MMMMMMMMMMMM",
"MMMMMMMMMMMMM     7nnf                                                                  fmn7     MMMMMMMMMMMMM",
"MMMMMMMMMMMMMM     7nmf                                                                fmn4     MMMMMMMMMMMMMM",
"MMMMMMMMMMMMMMM     7vmj                                                              jmv4     MMMMMMMMMMMMMMM",
"MMMMMMMMMMMMMMMM     $vmx$                                                          $xmv$     MMMMMMMMMMMMMMMM",
"MMMMMMMMMMMMMMMMM     $zmb7                                                        7bmz      MMMMMMMMMMMMMMMMM",
"MMMMMMMMMMMMMMMMMM      fmmj                                                      jmnd      MMMMMMMMMMMMMMMMMM",
"MMMMMMMMMMMMMMMMMMM      7vmv7                                                  7vmv1      MMMMMMMMMMMMMMMMMMM",
"MMMMMMMMMMMMMMMMMMMM       jmmz$                                              $zmmj       MMMMMMMMMMMMMMMMMMMM",
"MMMMMMMMMMMMMMMMMMMMM       7cmnj$                                          $jnmc=       MMMMMMMMMMMMMMMMMMMMM",
"MMMMMMMMMMMMMMMMMMMMMMM       ubmnj;                                      ;jnmby       MMMMMMMMMMMMMMMMMMMMMMM",
"MMMMMMMMMMMMMMMMMMMMMMMM        fbmmzq                                  uzmmbs        MMMMMMMMMMMMMMMMMMMMMMMM",
"MMMMMMMMMMMMMMMMMMMMMMMMMM        ucmmbl7                            7lbmmct        MMMMMMMMMMMMMMMMMMMMMMMMMM",
"MMMMMMMMMMMMMMMMMMMMMMMMMMM         ;lbmmnxh7                    7hxnmmbk&         MMMMMMMMMMMMMMMMMMMMMMMMMMM",
"MMMMMMMMMMMMMMMMMMMMMMMMMMMMM          7lvmmmmczjfqq7    7qqfjzcmmmmvl,          MMMMMMMMMMMMMMMMMMMMMMMMMMMMM",
"MMMMMMMMMMMMMMMMMMMMMMMMMMMMMMM           $ulcmmmmmmmmmmmmmmmmmmclwo           MMMMMMMMMMMMMMMMMMMMMMMMMMMMMMM",
"MMMMMMMMMMMMMMMMMMMMMMMMMMMMMMMMM              $qfjjjccccjjja8+              MMMMMMMMMMMMMMMMMMMMMMMMMMMMMMMMM",
"MMMMMMMMMMMMMMMMMMMMMMMMMMMMMMMMMMMM                                      MMMMMMMMMMMMMMMMMMMMMMMMMMMMMMMMMMMM",
"MMMMMMMMMMMMMMMMMMMMMMMMMMMMMMMMMMMMMMM                                MMMMMMMMMMMMMMMMMMMMMMMMMMMMMMMMMMMMMMM",
"MMMMMMMMMMMMMMMMMMMMMMMMMMMMMMMMMMMMMMMMMM                          MMMMMMMMMMMMMMMMMMMMMMMMMMMMMMMMMMMMMMMMMM",
"MMMMMMMMMMMMMMMMMMMMMMMMMMMMMMMMMMMMMMMMMMMMMMMM              MMMMMMMMMMMMMMMMMMMMMMMMMMMMMMMMMMMMMMMMMMMMMMMM"
};
